# xmcd
#
# Track frame offsets: 
#        150
#        11625
#        40530
#        53555
#        71610
#        90492
#        123735
#        139040
#        156665
#        168855
#        201485
#        228927
#        245810
#        292372
#
# Disc length: 4078 seconds
#
# Revision: 1
# Processed by: cddbd v1.5.2PL0 Copyright (c) Steve Scherf et al.
# Submitted via: ExactAudioCopy v0.99pb4
#
DISCID=cd0fec0e
DTITLE=Various Artist - Guitar Jazz - Masters Of The Fretboard
DYEAR=2001
DGENRE=Jazz
TTITLE0=Fingerpickin'
TTITLE1=Rev. Moses
TTITLE2=Ain't Misbehavin'
TTITLE3=Midnight Blue
TTITLE4=I Heard It Through The Grapevine
TTITLE5=God Bless The Child
TTITLE6=Autumn In New York
TTITLE7=Both Sides Now
TTITLE8=Soul Lament
TTITLE9=No Matter What
TTITLE10=Georgia On My Mind
TTITLE11=Night And Day
TTITLE12=My Favorite Things
TTITLE13=Sweet Georgia Brown
EXTD=
EXTT0=
EXTT1=
EXTT2=
EXTT3=
EXTT4=
EXTT5=
EXTT6=
EXTT7=
EXTT8=
EXTT9=
EXTT10=
EXTT11=
EXTT12=
EXTT13=
PLAYORDER=
